<svg width="361" height="360" viewBox="0 0 361 360" fill="none" xmlns="http://www.w3.org/2000/svg">
<path d="M23.2371 157.269L175.86 4.6456C178.341 2.16497 182.363 2.16498 184.843 4.6456L220.731 40.5332C223.212 43.0138 223.193 47.0544 220.712 49.535L113.002 157.246C100.598 169.649 100.599 189.804 112.999 202.209C155.136 244.364 170.51 259.802 220.662 309.958C223.143 312.438 223.167 316.484 220.686 318.965L184.843 354.808C182.363 357.288 178.341 357.288 175.86 354.808L23.2371 202.184C10.834 189.781 10.834 169.672 23.2371 157.269Z" fill="black" stroke="black" stroke-width="0.12704"/>
<path d="M254.463 83.158L162.386 175.235C159.905 177.716 159.905 181.738 162.386 184.218L187 208.832C189.481 211.313 193.502 211.313 195.983 208.832L258.865 145.95L270.184 157.269C282.587 169.672 282.587 189.781 270.184 202.184L229.76 242.608C227.279 245.089 227.279 249.111 229.76 251.592L254.377 276.209C256.856 278.688 260.875 278.69 263.356 276.213L337.517 202.184C349.939 189.784 349.948 169.66 337.537 157.249L263.446 83.158C260.966 80.6774 256.944 80.6774 254.463 83.158Z" fill="black" stroke="black" stroke-width="0.12704"/>
</svg>
